<?xml version="1.0" encoding="UTF-8"?>
<svg version="1.1" viewBox="0 0 2048 1372" width="1006" height="674" xmlns="http://www.w3.org/2000/svg">
<path transform="translate(0)" d="m0 0h2048v1372h-2048z" fill="#1E1E1E"/>
<path transform="translate(0)" d="m0 0h2048v1372h-2048zm41 12-11 2-9 7-7 10-2 6-1 181v1089l3 12 5 9 7 6 7 4 4 1h262l767-1h937l12-6 8-9 3-7 1-6v-39l-1-103v-931l1-169v-34l-6-10-7-7-7-4-1445-1z" fill="#FCFBF9"/>
<path transform="translate(1010,268)" d="m0 0h19l27 3 21 4 23 7 22 10 18 11 16 12 13 11 12 11 12 14 13 18 9 16 8 17 10 30 5 24 2 17v32l-4 25-5 20-8 22-8 16-10 18-10 14-11 13-11 12-10 9-17 13-10 6-3 2h-3l-1-322-16 2-9 4-9 7-7 8-9 14-8 18-8 24-6 24-8 50-3 28-2 24-2 35 43 1 1 1 1 17v85l-7 3-11 3-23 4h-44l-8-1-3-4-7-150v-21l7-6 11-9 9-12 5-10 2-7 1-8v-113h-13v116l-4 12-9 12-13 9-9 5h-2l1 6 4 83 4 88v5l-10-1-18-5-4-2v-13l6-127 1-32-3-3-14-8-10-9-7-12-2-12-1-113h-12v115l3 14 7 14 9 10 7 6 9 6 1 1v15l-6 109-1 22-1 10-4-1-17-9-18-12-14-11-12-11-9-9-13-17-10-15-12-22-9-24-6-24-3-21-1-15v-24l3-23 6-24 8-22 10-21 13-20 11-14 11-12 11-11 14-11 10-7 20-12 17-8 25-9 21-5z" fill="#F7E394"/>
<path transform="translate(936,290)" d="m0 0 3 2v3h-2l1 7 3 7 3 12 1 20 3 14 3 6 1 7-1 7v8l1 2 1 14 1 30 1 9 1-61 2-13 1-1 7 1 1 39v53l-1 27-9 1-1-1-1-36-1 6-1 17-4 12h-2v2h-3l1 18-2 2h-8l-7-3-4-4-5-9-2-12-1-113h-12v115l3 14 7 14 9 10 7 6 9 6 1 1v15l-6 109-1 22-1 10-4-1-17-9-18-12-14-11-12-11-9-9-13-17-10-15-12-22-9-24-6-24-3-21-1-15v-24l3-23 6-24 8-22 10-21 13-20 11-14 11-12 11-11 14-11 7-5 7-3 18-10z" fill="#AE894D"/>
<path transform="translate(1108,291)" d="m0 0 9 3 10 3 7 2 17 12 11 9 14 12 8 8 11 14 11 15 9 16 8 17 10 30 5 24 2 17v32l-4 25-5 20-8 22-8 16-10 18-10 14-11 13-11 12-10 9-17 13-10 6-3 2h-3l-1-322h-15l-10 1v-2h-3l-1-3v-18l2-6v-12l2-17 2-4z" fill="#AE894D"/>
<path transform="translate(1524,770)" d="m0 0h29l9 2 5 4v226l-3 2h-19l-12-6-4-3-5 2-11 5-15 4h-13l-16-4-16-8-12-11-9-14-6-15-2-10-1-18 2-15 4-12 8-14 9-10 10-7 14-7 12-3h15l16 4 14 5v-68l-1-14-2-8z" fill="#956A35"/>
<path transform="translate(1141,857)" d="m0 0h21l13 3 15 6 12 7 9 9 6 9 7 14 3 12 1 6v18l-4 15-8 16-8 10-9 9-11 7-18 7-4 1h-22l-10-2-9-3-12-6-10-8-10-10-9-14-5-15-1-5v-22l3-14 8-16 7-9 10-10 14-8 16-6z" fill="#DDC57C"/>
<path transform="translate(1315,857)" d="m0 0h19l12 3 16 7 11 7 9 9 9 14 5 12 3 14v18l-4 16-8 15-8 10-11 10-14 8-15 5-8 1h-13l-12-2-16-6-11-7-10-9-7-8-7-12-4-11-2-12v-15l3-16 6-14 9-12 9-9 13-8 18-7z" fill="#BFA363"/>
<path transform="translate(633,769)" d="m0 0h21l8 3 5 5 1 6v81l-1 5 23-10 10-2h16l13 3 12 5 11 8 7 8 7 14 3 14 1 78 1 5v11l-7 2-24-1-9-6-2-3-1-7v-70l-2-10-4-7-6-5-7-3h-13l-13 4-14 10-1 91-2 5-2 1h-34l-2-2-1-5-1-209-3-16 2-2z" fill="#AE884D"/>
<path transform="translate(859,857)" d="m0 0h25l16 4 12 7 8 9 6 12 3 13 1 60 2 23v17l-2 2h-26l-6-5-3-6v-2l-8 4-7 4-15 6h-27l-13-3-8-4-9-8-6-10-3-8v-17l4-10 5-8 8-7 10-6 10-5 20-6 29-6 5-1-3-9-5-3-6-1h-9l-20 4-22 8h-6l-8-16-4-11 1-4 8-5 15-6 16-4z" fill="#DDC67C"/>
<path transform="translate(967,275)" d="m0 0 11 1h8l4 3 2 13 3 6 2 32 1 23 1 9-3 2-3-1v103l-1 15-3 3-5 1 7 1 4 1 1 6-7 8-8 8-10 7v2h-2l1 6 4 83 4 88v5l-10-1-18-5-4-2v-13l6-127 1-32-3-3-14-8-8-7 1-2 6 3h8l1-1-1-19 4 1v-2h2l1-5 2-7 2-26 2 3 1 36h9v-119h-7l-2 13-1 62-2-1-1-9-1-33-1-11-1-2v-13l1-4-6-18-1-7-1-20-4-14-3-10 1-2h2l-2-4-14 4-18 10-5 2 4-4 19-11 15-7 25-9z" fill="#DBC47B"/>
<path transform="translate(1035,767)" d="m0 0h14l13 2 12 4 9 6v6l-8 18-4 7-2 2-9-2-11-3h-12l-9 6-4 5-1 4-1 37h32l1 1v35l-1 1-31 1-1 104-3 3-5 1h-19l-7-2-6-7-1-3v-97h-20l-2-4v-26l5-6 16-2 1-37 1-10 3-11 6-10 8-9 11-7 18-6z" fill="#F6E394"/>
<path transform="translate(525,857)" d="m0 0h18l14 3 17 6 10 7v6l-12 18-5 6-7-1-16-5-4-1h-14l-5 3-1 6 4 3 32 11 17 8 12 11 5 9 3 9v10l-4 11-8 11-10 8-13 6-10 3-8 1h-9l-15-2-24-8-11-6-4-3 1-7 10-16 4-6 6 1 16 6 13 3h8l8-3 3-3-1-7-10-5-26-8-12-6-10-9-6-9-3-7-1-6v-9l4-11 7-11 10-8 16-7z" fill="#956A35"/>
<path transform="translate(1112,369)" d="m0 0h2l1 2v312l-8 5-4 2h-3l-1-111h-33l-9-1v-19l4-43 5-35 7-35 7-25 7-19 11-20 8-9z" fill="#F8E495"/>
<path transform="translate(936,290)" d="m0 0 3 2v3h-2l1 7 3 7 3 12 1 20 3 14 3 6 1 7-1 7v8l1 2 1 14 1 30 1 9 1-61 2-13 1-1 7 1 1 39v53l-1 27-9 1-1-1-1-36-1 6-1 17-4 12h-2v2h-3l1 18-2 2h-8l-7-3-4-4-5-9-2-12-1-113h-12l-1 23-1 9h-1l-4-29-2-16-4-11-4-6-2-2v-3l-2-1-4-1-8 6-6 6-2-1 14-14 14-11 7-5 7-3 18-10z" fill="#BEA262"/>
<path transform="translate(1108,291)" d="m0 0 9 3 10 3 7 2 17 12 22 18-3 1-8-5h-6l-1 1-2 22 1 9-1 13-1 41-1 5v18l-1 26v71l1 28v15l-1 14v17l1 6v28l1 12 1 4 9-4 8-7h2v-2h2l-2 4-14 12-15 11-10 6h-3l-1-322h-15l-10 1v-2h-3l-1-3v-18l2-6v-12l2-17 2-4z" fill="#BEA262"/>
<path transform="translate(1195,369)" d="m0 0 5 2 5 5 4 3v2l5 2 9 19 10 30 5 24 2 17v32l-4 25-5 20-8 22-8 16-9 16h-2l-6 8-5 2-2-2-1-7-1-9-1-8v-13l2-49v-117l2-28z" fill="#9E7945"/>
<path transform="translate(840,386)" d="m0 0 5 2 4 2 2 9 2 6 2 12v23l-1 10v59l-1 29v25l-1 26-4 10h-2v2l-5-2-5-3-6-8-3-6h-2l-8-19-7-24-3-14-2-16-1-15v-24l3-23 6-24 7-20h2l4-8 5-4 1-2z" fill="#9E7845"/>
<path transform="translate(901,454)" d="m0 0h1l1 18 3 17 5 12 7 10 9 9 11 7 2 2v15l-6 109-1 22-1 10-4-1-17-9-18-12-14-11-11-10 1-2 10 9 5 2 2-4 6-5 2-3 3-12v-20l-1-10-1-21v-25l-2-10v-34l1-10 3-5v-10z" fill="#BFA363"/>
<path transform="translate(700,857)" d="m0 0h16l13 3 12 5 11 8 7 8 7 14 3 14 1 78 1 5v11l-7 2-24-1-9-6-2-3-1-7v-70l-2-10-4-7-6-5-9-4-10-1 4-4 2-1 1-5-4-4 1-13-13-1-7 3-9 3v-2l18-8z" fill="#BFA263"/>
<path transform="translate(1482,858)" d="m0 0h15l1 2-7 2v3h-2l1 5-1 5v7l-8 10 4 1h9l2 2-12 3-10 6-7 8-4 11v12l3 11 6 10 7 6 8 4 6 2 13 1-3 2-7 5h-2l-2 10-3 4-3 5-2 1-1 5h2v2l8 1v1h-14l-15-5-11-6-12-11-9-14-6-15-2-10-1-18 2-15 4-12 8-14 9-10 10-7 14-7z" fill="#9D7845"/>
<path transform="translate(1071,274)" d="m0 0 17 4 19 7 16 8 7 4-3 1-10-3-9-3-2 2-2 8-1 17-1 11-1 1v21h3v2l10-2h6l-1 2-12 3-11 8-8 9-6 9-4 2-8 14-8 18-5 4h-2l-1-7-1-9-3-13-3-19-1-19 1-18v-15l2-24 5-17 5-4h11z" fill="#DDC67C"/>
<path transform="translate(1112,369)" d="m0 0h2l1 2v312l-8 5-4 2h-3l-1-111-4-1h3l-1-11v-29l1-48v-30l1-76v-3l7-8z" fill="#AD884D"/>
<path transform="translate(1133,859)" d="m0 0h11l-1 3-6 3-4 3-2 7-10 9-6 15v7l6-2 12-6v3l-8 7-5 9-2 9v12l4 12 7 9 3 3-1 2-8-1v15l5 8 3 2 6 12 8 3v1h-11l-9-3-12-6-10-8-10-10-9-14-5-15-1-5v-22l3-14 8-16 7-9 10-10 14-8z" fill="#F6E394"/>
<path transform="translate(1346,865)" d="m0 0h12l11 6 12 11 7 10 7 14 3 11 1 6v18l-4 16-8 15-8 10-11 10-6 4h-2v-2l-8 2-9-1 2-9 6-9 3-7 4-6 4-9 2-8v-14l-1-9-5-12-1-5-4-9-5-8-2-6-3-18z" fill="#AE894D"/>
<path transform="translate(1316,895)" d="m0 0h16l10 4 9 7 6 10 3 9v15l-4 10-7 9-8 6-11 4h-11l-12-4-10-8-6-9-3-11v-11l4-13 7-9 9-6z" fill="#1E1E1E"/>
<path transform="translate(1146,895)" d="m0 0h14l11 4 8 7 6 8 3 8 1 6v10l-3 9-6 10-7 6-11 5-5 1h-7l-13-4-8-5-7-8-4-10-1-4v-12l3-11 6-9 7-6 9-4z" fill="#1E1E1E"/>
<path transform="translate(1490,895)" d="m0 0h10l17 4 8 4 3 4v49l-2 7-11 4-8 2h-14l-12-5-6-4-7-8-4-8-2-9v-12l4-11 9-10 11-6z" fill="#1E1E1E"/>
<path transform="translate(1214,398)" d="m0 0 5 2 1 3 2 1 1-2 10 30 5 24 2 17v32l-4 25-5 20-8 22-6 13-4 1-2 4-4-1 2-14 1-14v-88l1-4 1-25v-23l1-17z" fill="#956A35"/>
<path transform="translate(1048,592)" d="m0 0h37l1 1 1 17v85l-3 2-19-2-5-2-9-7-4-6-2-8-1-15 1-14 1-16 2-10 6-12 1-11-7-1z" fill="#DCC57B"/>
<path transform="translate(819,413)" d="m0 0h4l4 11 3 6 1 11 1 1 1 12v91l-2 22-1 7-2 2h-2v-2l-5-1-7-19-6-24-3-21-1-15v-24l3-23 6-24h2l3-9z" fill="#956A35"/>
<path transform="translate(1477,859)" d="m0 0h12v1l-9 2-8 5h-2l-1 3h-2l-1 4-7 14-5 11-3 12-2 24-1 14v12l3 11 1 9 4 6 2 1v2h2l9 9 1 2-6-1-11-6-12-11-9-14-6-15-2-10-1-18 2-15 4-12 8-14 9-10 10-7 14-7z" fill="#AE894D"/>
<path transform="translate(1076,435)" d="m0 0 1 4-1 3h4l1 3-1 105-1 29h-13l-9-1v-19l4-43 5-35 7-35z" fill="#DCC57B"/>
<path transform="translate(1112,369)" d="m0 0h2l1 2v312l-4 2-4-5-1-27v-41l1-28 1-139 1-49 1-21-2-3z" fill="#956A35"/>
<path transform="translate(897,862)" d="m0 0 7 1 10 7 8 10 5 12 2 10 1 60 2 23v17l-2 2h-26l-6-5-3-6v-2l4 2 3 4v2l8 1 2-5 4-6 6-11 2-6 1-8-2-17v-16l-3-7-2-17-7-22-2-4 1-1-1-7-1-3-5-2-3-2v-2l-3-1z" fill="#F4E091"/>
<path transform="translate(1099,383)" d="m0 0h1l-1 94v25l-1 50v26h-3l-2-8-2-37v-88l1-19v-16l2-17 2-8z" fill="#DDC67C"/>
<path transform="translate(984,363)" d="m0 0h7l2 4v99l-1 15-1 2h-8v-108z" fill="#282520"/>
<path transform="translate(959,363)" d="m0 0 7 1 1 39v53l-1 27-9 1v-117z" fill="#1E1E1E"/>
<path transform="translate(883,941)" d="m0 0h6v21l-5 4-19 7-6 1h-10l-5-3-3-5v-7l9-8 11-4z" fill="#1E1E1E"/>
<path transform="translate(1102,379)" d="m0 0h1l1 24v161l-1 21-2 6-2-4v-8l-4-1h3l-1-11v-29l1-48v-30l1-76v-3z" fill="#BFA363"/>
<path transform="translate(935,362)" d="m0 0 4 1 1 2v118l-1 1h-6l-1-1v-119z" fill="#1E1E1E"/>
<path transform="translate(1065,487)" d="m0 0 1 4h3l1 2 1 14-2 51v19l4 2-16-1v-19l4-43z" fill="#AD884D"/>
<path transform="translate(1110,372)" d="m0 0h2l1 6-1 40-1 112v31l1 18v11l-1 8-1 16-1 2v19l-1 11 1 21h1v10h-2l-1 3-1-27v-41l1-28 1-139 1-49 1-21z" fill="#9E7946"/>
<path transform="translate(1074,463)" d="m0 0h2l1 2v19l-2 21v73l4 1-10-1-1-1v-24l2-48-1-14h-3v-10l3-16 2 2z" fill="#BFA363"/>
<path transform="translate(992,1036)" d="m0 0h8l5 3 5 6 1 3v8l-6 8-2 1h-12l-6-4-3-4v-10l6-8z" fill="#ECD78A"/>
<path transform="translate(1131,1036)" d="m0 0 10 1 6 6 1 3v10l-5 7-4 2h-12v-25z" fill="#D5BC75"/>
<path transform="translate(1061,1036)" d="m0 0h11l6 6v8l-5 8h2l2 3v5h-5l-4-5-3-3-1 8-4-1-1-1v-25z" fill="#F3DF90"/>
<path transform="translate(555,920)" d="m0 0 6 1 13 7 10 9 5 7 2 5v5l-4 1-3 2-3 9-4-2-4-14-3-4v-5l2-2v-6l-6-7-11-5z" fill="#9E7845"/>
<path transform="translate(1264,1036)" d="m0 0h8l7 3 2 3v8l-5 7 3 4-1 5-5-2-2-4v-4h-3l-1 9h-4l-1-2v-24z" fill="#B99A5C"/>
<path transform="translate(796,1036)" d="m0 0h8l5 3 3 5-1 7-4 2 4 10v2h-5l-4-8-4-1v4l2 1h-2l-1 4-4-1v-25z" fill="#C2A564"/>
<path transform="translate(1202,1036)" d="m0 0h10l1 5-10 2-1 5h8v6l-7 1-1 5h10l1 5h-15l-2-3v-21l1-4z" fill="#D7BF77"/>
<path transform="translate(869,1036)" d="m0 0h9v5l-10 2-1 5h7l2 5-1 1-8 1-1 6 12-1-1 5-2 1h-8l-5-2-1-2v-24l1-1z" fill="#D5BC74"/>
<path transform="translate(654,1036)" d="m0 0h2v12l10 1v-13l4 1 1 1v26l-5 1-1-2 1-10h-10l1 12-4-1-1-3v-24z" fill="#A67F45"/>
<path transform="translate(1059,535)" d="m0 0 2 3 3-1 1 1v38l-1 2h-7v-19z" fill="#9D7845"/>
<path transform="translate(731,1038)" d="m0 0h2l10 23 1 5-4-2-5-2-4-1 2-5h-2l-2 5-7 5h-2l3-9z" fill="#AD884C"/>
<path transform="translate(1285,867)" d="m0 0 4 1-10 6-8 7-5 7-5 11-2 9-3 8-1 5-1 21-2 2-2-11 1-21 5-14 7-11 9-10 8-7z" fill="#D9C178"/>
<path transform="translate(993,1042)" d="m0 0 7 1 5 5v7l-5 5-9-1-3-5v-6z" fill="#201F1E"/>
<path transform="translate(1337,1037)" d="m0 0 7 1 2 3-1 5-3-1-2-3h-5l2 5 8 6 2 2-1 7-5 3-7-1-4-4v-3l4 2 9 1-2-4-9-6-1-1v-7l3-4z" fill="#AC884C"/>
<path transform="translate(974,663)" d="m0 0h1v8h2l1 29-10-1-11-3v-2l13-1 2-4z" fill="#E9D387"/>
<path transform="translate(592,1038)" d="m0 0h7l2 2v4l-7-2-3 1v4l9 5 2 2v7l-5 4h-6l-4-5 1-3 4 3h6v-4l-10-6-1-1v-7z" fill="#996F38"/>
<path transform="translate(1466,910)" d="m0 0 1 2-4 11v12l3 11 4 7-1 2-9-11-4-9-1-7 4-8h2l2-6z" fill="#AD874C"/>
<path transform="translate(796,1036)" d="m0 0h8l5 3 3 5-1 7-3 2-6-1v-2l-4-1-1-4 5-7-6-1z" fill="#C0A262"/>
<path transform="translate(1101,623)" d="m0 0h1l1 5 2 61-5 1z" fill="#BFA262"/>
<path transform="translate(1065,1042)" d="m0 0h5l2 2-1 6-2 5 6 3 2 3v5h-5l-4-5-3-3v5h-1v-11-4-5z" fill="#CEB46E"/>
<path transform="translate(1133,1043)" d="m0 0h5l4 4 1 7-3 5-1 1h-6l-1-1v-15z" fill="#1F1E1E"/>
<path transform="translate(1058,546)" d="m0 0h1v8l3-1 1 1v19l-1 3h-3v2h-2v-19z" fill="#956A35"/>
<path transform="translate(1072,1037)" d="m0 0 6 5v8l-5 7-5-1 3-8-1-5-4-2 2-3z" fill="#D5BC75"/>
<path transform="translate(1196,1041)" d="m0 0h1l1 11 4 5v3h10l1 5h-15l-2-3z" fill="#D7BE76"/>
<path transform="translate(800,952)" d="m0 0 3 3h1l2 9-1 8v3h-3l-1 3-2-6v-17z" fill="#BC9F60"/>
<path transform="translate(931,667)" d="m0 0h1v18l-4-1-17-9v-2l9 3 7 1 3-9z" fill="#D4BA73"/>
<path transform="translate(1453,1036)" d="m0 0h4v29l-4 1 1-11-1-1z" fill="#956A35"/>
<path transform="translate(905,491)" d="m0 0 2 1 7 14 9 10 7 6 9 6v3l-6-2-3-2v-2h-2v-2l-4-2-10-11-8-13z" fill="#D2B872"/>
<path transform="translate(1127,1040)" d="m0 0h1l2 7 2-2 1 8v6l5 1v1h-9l-1 3h11v1h-12z" fill="#CBB06C"/>
<path transform="translate(1337,1037)" d="m0 0 7 1 2 3-1 5-3-1-2-3h-5l2 10-4-1-2-2v-7l3-4z" fill="#B39155"/>
<path transform="translate(832,966)" d="m0 0h2l5 5 5 2-2 4-10-1-5-2-1-3h3l2-4z" fill="#C0A464"/>
<path transform="translate(591,965)" d="m0 0h1l-1 8-6 10-4 5-10 8-5 1 5-5 3-1 1-2h2v-2h2l7-14h2l2-5z" fill="#A37D46"/>
<path transform="translate(969,555)" d="m0 0h1l1 5 1 28v21h-1l-2-18v-14l-1-20z" fill="#F9E696"/>
<path transform="translate(1146,1051)" d="m0 0h1v7l-4 5-2 1h-13l1-4h9l3-3 3-5z" fill="#F1DD8F"/>
<path transform="translate(797,1049)" d="m0 0 5 1v2h6l1 6 2 7h-5l-4-8v-2h-3z" fill="#D0B56F"/>
<path transform="translate(592,1038)" d="m0 0h7l2 2v4l-7-2-3 1v4l4 2-1 3-5-1-2-2v-7z" fill="#986E38"/>
<path transform="translate(670,1038)" d="m0 0h1v26l-5 1-1-2v-11l4-2z" fill="#956A35"/>
<path transform="translate(1263,1037)" d="m0 0h3l2 12 2 1v2l4 1h-10l-2-2v-12z" fill="#D1B771"/>
<path transform="translate(1268,1041)" d="m0 0 6 1 2 1-1 8-7-1-1-1v-7z" fill="#1E1E1E"/>
<path transform="translate(729,939)" d="m0 0h1l1 47-1 9h-1l-1-7v-18z" fill="#A88247"/>
<path transform="translate(582,877)" d="m0 0 1 4-11 16-4 5-2-1 6-9 6-12z" fill="#A47E47"/>
<path transform="translate(800,1041)" d="m0 0 5 1 2 2-1 5-4 2-4-2-1-4z" fill="#1E1E1E"/>
<path transform="translate(864,1046)" d="m0 0 1 3 2-1h7l2 5-1 1h-9l-2-2z" fill="#E3CB81"/>
<path transform="translate(872,1060)" d="m0 0h6l-1 5-2 1h-8l-4-2 5-3z" fill="#CEB26D"/>
<path transform="translate(1285,867)" d="m0 0 4 1-10 6-8 7-5 7-4 2 2-4 7-8 9-8z" fill="#D0B771"/>
<path transform="translate(1076,1045)" d="m0 0h2l-1 7-4 5-5-1 2-6 5-1z" fill="#F3DF91"/>
<path transform="translate(1065,1042)" d="m0 0h5l2 2-1 6h-5l-2-2v-5z" fill="#201F1E"/>
<path transform="translate(1330,1057)" d="m0 0 4 2 11 2v2l-4 2-7-1-4-4z" fill="#C7AB68"/>
<path transform="translate(1262,1054)" d="m0 0 4 1 1 1v9h-4l-1-2z" fill="#D9C179"/>
<path transform="translate(733,1048)" d="m0 0 2 2 2 10 1 2h-7l2-6h-2v-6z" fill="#956A35"/>
<path transform="translate(1063,559)" d="m0 0h2v17l-1 2h-5v-2h3z" fill="#9E7946"/>
<path transform="translate(1337,1037)" d="m0 0 7 1 2 3-1 5-3-1-4-5z" fill="#A78147"/>
<path transform="translate(687,893)" d="m0 0 2 1-12 7-7 5-2-1 7-6z" fill="#B8995B"/>
<path transform="translate(562,863)" d="m0 0 7 1 10 5 4 3-1 2-7-2-1-3-12-5z" fill="#A37D46"/>
<path transform="translate(1274,1058)" d="m0 0h3l2 3-1 5-5-2-1-5z" fill="#C1A362"/>
<path transform="translate(592,1038)" d="m0 0h7l2 2v4l-5-2-6-1v-2z" fill="#A17840"/>
<path transform="translate(970,588)" d="m0 0h2v21h-1l-2-18z" fill="#F9E696"/>
<path transform="translate(796,1055)" d="m0 0h2v5l2 1h-2l-1 4h-3v-8z" fill="#D2B771"/>
<path transform="translate(688,860)" d="m0 0 2 1-5 4-10 3-3 1v-2z" fill="#B8995C"/>
<path transform="translate(882,319)" d="m0 0m-1 1m-1 1m-1 1m-2 1 2 1-14 14-2-1z" fill="#B99B5D"/>
<path transform="translate(1172,642)" d="m0 0h2l-2 4-12 10v-3l10-9h2z" fill="#B8995C"/>
<path transform="translate(1205,1048)" d="m0 0h5v6h-7v-3l2-2z" fill="#D0B570"/>
<path transform="translate(654,1054)" d="m0 0h2l1 11-4-1v-9z" fill="#A78147"/>
<path transform="translate(1196,1041)" d="m0 0h1l1 11 4 5h-3l-2-1v6h-1z" fill="#AF8E53"/>
<path transform="translate(1066,1050)" d="m0 0h4l-1 7h-5v-5z" fill="#DAC279"/>
<path transform="translate(591,965)" d="m0 0h1l-1 8-4 4-4 6-1-2 4-8h2l2-5z" fill="#9D7744"/>
<path transform="translate(1455,1056)" d="m0 0h2v9l-4 1 1-9z" fill="#997039"/>
<path transform="translate(1331,1044)" d="m0 0h3l3 6v2l-4-1-2-2z" fill="#CAB06C"/>
<path transform="translate(582,877)" d="m0 0 1 4-5 4-2 4-2-1 4-8z" fill="#9E7945"/>
<path transform="translate(941,480)" d="m0 0 2 4-3 3-6-1-2-2 7-1z" fill="#DCC47B"/>
<path transform="translate(570,927)" d="m0 0 4 1 10 9v3l-12-11z" fill="#A47D44"/>
<path transform="translate(793,1050)" d="m0 0 5 3v2l-3 2-1 7h-1z" fill="#A47D44"/>
<path transform="translate(796,1036)" d="m0 0h8l5 3v1h-5l-1 2-2-2 1-2-6-1z" fill="#B29154"/>
<path transform="translate(1267,1054)" d="m0 0 9 1v3l-5 2v-4h-3l-1 2z" fill="#A47C43"/>
<path transform="translate(969,555)" d="m0 0h1l1 5v8h-2l-1-11z" fill="#F0DC8E"/>
</svg>
